<svg width="61" height="14" viewBox="0 0 61 14" fill="none" xmlns="http://www.w3.org/2000/svg">
<g clip-path="url(#clip0_2708_11285)">
<path d="M3.29497 6.01291C2.52476 6.01291 2.11635 6.46741 2.11635 7.2748V10.7641H0.000488281V3.9248H1.18852L1.93098 4.71386C2.28388 4.20335 2.81272 3.9248 3.52743 3.9248H4.16779V6.01291H3.29547H3.29497Z" fill="#7C7C7C"/>
<path d="M4.6792 3.9248H6.79506V7.76697C6.79506 8.48167 7.25898 8.97334 7.94593 8.97334C8.63288 8.97334 9.08738 8.48167 9.08738 7.76697V3.9248H11.2032V10.7646H10.0152L9.29158 9.99435C8.79991 10.5792 8.10354 10.9222 7.28723 10.9222C5.7468 10.9222 4.6797 9.79907 4.6797 8.15653V3.9248H4.6792Z" fill="#7C7C7C"/>
<path d="M18.402 10.765H16.2861V6.95055C16.2861 6.2175 15.8128 5.71641 15.1075 5.71641C14.4022 5.71641 13.9289 6.2175 13.9289 6.95055V10.765H11.813V3.92519H13.001L13.7341 4.70482C14.2257 4.11105 14.931 3.76758 15.7667 3.76758C17.3259 3.76758 18.4025 4.90903 18.4025 6.57039V10.765H18.402Z" fill="#7C7C7C"/>
<path d="M18.1709 3.9248H20.3794L21.4188 7.80414L22.6718 3.9248H24.2122L25.4652 7.82248L26.5045 3.9248H28.5371L26.3841 10.7646H24.5373L23.3215 7.00617L22.0963 10.7646H20.3611L18.1709 3.9248Z" fill="#7C7C7C"/>
<path d="M31.4248 3.76758C33.2249 3.76758 34.3109 4.76083 34.3109 6.41229V10.765H33.1139L32.4924 10.0968C32.0285 10.6351 31.3603 10.9226 30.553 10.9226C29.1146 10.9226 28.103 10.0319 28.103 8.76953C28.103 7.42388 29.0869 6.64424 30.7943 6.64424H32.2515V6.4217C32.2515 5.83685 31.9268 5.52163 31.3142 5.52163C30.7666 5.52163 30.4142 5.80018 30.377 6.26409H28.3077C28.4282 4.75141 29.6534 3.76758 31.4258 3.76758L31.4248 3.76758ZM32.2505 8.27786V7.98097H31.0164C30.4875 7.98097 30.1812 8.22234 30.1812 8.63967C30.1812 9.08524 30.543 9.35437 31.1462 9.35437C31.8609 9.35437 32.2505 8.98314 32.2505 8.27786Z" fill="#7C7C7C"/>
<path d="M37.7812 13.038H35.5449L36.7419 10.1703L33.9668 3.9248H36.4356L37.8739 7.64603L39.229 3.9248H41.4653L37.7812 13.038Z" fill="#7C7C7C"/>
</g>
<path d="M60.9562 1.7793V10.76H59.8452V1.7793H60.9562Z" fill="#7C7C7C"/>
<path d="M55.9934 1.7793C58.0435 1.7793 58.9693 2.73159 58.9693 4.27908C58.9693 5.76043 57.9509 6.83176 55.9008 6.83176H53.4143V10.76H52.29V1.7793H55.9934ZM53.4143 5.89269H55.8082C57.2235 5.89269 57.8451 5.2446 57.8451 4.27908C57.8451 3.27387 57.2235 2.71837 55.8082 2.71837H53.4143V5.89269Z" fill="#7C7C7C"/>
<path d="M43.4536 10.76L46.9983 1.7793H48.2019L51.6275 10.76H50.4371L49.5377 8.28666H45.5831L44.644 10.76H43.4536ZM45.9269 7.34759H49.1938L47.5935 2.92999L45.9269 7.34759Z" fill="#7C7C7C"/>
<defs>
<clipPath id="clip0_2708_11285">
<rect width="41.4726" height="9.24656" fill="white" transform="translate(0.000488281 3.77734)"/>
</clipPath>
</defs>
</svg>
